<svg width="24" height="24" viewBox="0 0 24 24" fill="none" xmlns="http://www.w3.org/2000/svg">
<path d="M16.9754 19.4999C18.7325 18.3363 20.0256 16.5929 20.6292 14.5737C21.2328 12.5544 21.1086 10.3874 20.2783 8.45034C19.448 6.51327 17.9642 4.92902 16.0856 3.97374C14.2071 3.01847 12.0528 2.75276 9.99838 3.22293M20.4984 19.4999H16.9754V15.9999M6.99838 4.51593C5.24729 5.68384 3.96092 7.42855 3.36298 9.44667C2.76504 11.4648 2.89335 13.6286 3.7256 15.562C4.55785 17.4953 6.04139 19.0757 7.91824 20.0285C9.79508 20.9813 11.9465 21.2461 13.9984 20.7769M3.49838 4.51593H6.99838V7.99993" stroke="white" stroke-width="1.6" stroke-linecap="round" stroke-linejoin="round"/>
<path d="M10.438 14.667V9.333M12 9.333V8M12 16V14.667M10.438 12H13.562M13.562 12C14.08 12 14.5 12.448 14.5 13V13.667C14.5 14.219 14.08 14.667 13.563 14.667H9.5M13.562 12C14.079 12 14.5 11.552 14.5 11V10.333C14.5 9.781 14.08 9.333 13.563 9.333H9.5" stroke="white" stroke-width="1.6" stroke-linecap="round" stroke-linejoin="round"/>
</svg>
